<svg xmlns="http://www.w3.org/2000/svg" viewBox="0 0 100 100">
  <defs>
    <radialGradient id="bg" cx="50%" cy="50%" r="50%">
      <stop offset="0%" style="stop-color:#FF8C00"/>
      <stop offset="100%" style="stop-color:#CC5500"/>
    </radialGradient>
  </defs>
  <circle cx="50" cy="50" r="50" fill="url(#bg)"/>
  <!-- Lotus petals -->
  <ellipse cx="50" cy="30" rx="8" ry="18" fill="#FFD700" opacity="0.9" transform="rotate(0,50,50)"/>
  <ellipse cx="50" cy="30" rx="8" ry="18" fill="#FFD700" opacity="0.8" transform="rotate(45,50,50)"/>
  <ellipse cx="50" cy="30" rx="8" ry="18" fill="#FFD700" opacity="0.8" transform="rotate(90,50,50)"/>
  <ellipse cx="50" cy="30" rx="8" ry="18" fill="#FFD700" opacity="0.8" transform="rotate(135,50,50)"/>
  <ellipse cx="50" cy="30" rx="8" ry="18" fill="#FFD700" opacity="0.8" transform="rotate(180,50,50)"/>
  <ellipse cx="50" cy="30" rx="8" ry="18" fill="#FFD700" opacity="0.8" transform="rotate(225,50,50)"/>
  <ellipse cx="50" cy="30" rx="8" ry="18" fill="#FFD700" opacity="0.8" transform="rotate(270,50,50)"/>
  <ellipse cx="50" cy="30" rx="8" ry="18" fill="#FFD700" opacity="0.8" transform="rotate(315,50,50)"/>
  <!-- Om symbol -->
  <text x="50" y="58" text-anchor="middle" font-size="28" fill="white" font-family="serif" font-weight="bold">ॐ</text>
</svg>
